<svg width="35" height="36" viewBox="0 0 35 36" fill="none" xmlns="http://www.w3.org/2000/svg">
<g clip-path="url(#clip0_3_61)">
<path   fill-rule="evenodd" clip-rule="evenodd" d="M17.415 3.583C9.72057 3.583 3.483 9.99965 3.483 17.915C3.483 25.8304 9.72057 32.247 17.415 32.247C25.1095 32.247 31.347 25.8304 31.347 17.915C31.347 9.99965 25.1095 3.583 17.415 3.583ZM0 17.915C0 8.02081 7.79696 0 17.415 0C27.033 0 34.83 8.02081 34.83 17.915C34.83 27.8091 27.033 35.83 17.415 35.83C7.79696 35.83 0 27.8091 0 17.915ZM16.1836 13.8073C15.5035 13.1077 15.5035 11.9733 16.1836 11.2737C16.8637 10.5741 17.9664 10.5741 18.6464 11.2737L23.8709 16.6482C24.551 17.3478 24.551 18.4822 23.8709 19.1818L18.6464 24.5563C17.9664 25.2559 16.8637 25.2559 16.1836 24.5563C15.5035 23.8567 15.5035 22.7223 16.1836 22.0227L18.4352 19.7065H12.1905C11.2287 19.7065 10.449 18.9044 10.449 17.915C10.449 16.9256 11.2287 16.1235 12.1905 16.1235H18.4352L16.1836 13.8073Z" fill="#FFF41F" />
</g>
<defs>
<clipPath id="clip0_3_61">
<rect width="34.83" height="35.83" fill="white"/>
</clipPath>
</defs>
</svg>
