<svg width="36" height="36" viewBox="0 0 36 36" fill="none" xmlns="http://www.w3.org/2000/svg">
<path  fill-rule="evenodd" clip-rule="evenodd" d="M17.9167 3.58333C10.0006 3.58333 3.58333 10.0006 3.58333 17.9167C3.58333 25.8328 10.0006 32.25 17.9167 32.25C25.8328 32.25 32.25 25.8328 32.25 17.9167C32.25 10.0006 25.8328 3.58333 17.9167 3.58333ZM0 17.9167C0 8.02156 8.02156 0 17.9167 0C27.8117 0 35.8333 8.02156 35.8333 17.9167C35.8333 27.8117 27.8117 35.8333 17.9167 35.8333C8.02156 35.8333 0 27.8117 0 17.9167ZM19.1836 11.2748C19.8832 11.9745 19.8832 13.1089 19.1836 13.8086L16.8671 16.125H23.2917C24.2812 16.125 25.0833 16.9271 25.0833 17.9167C25.0833 18.9062 24.2812 19.7083 23.2917 19.7083H16.8671L19.1836 22.0248C19.8832 22.7244 19.8832 23.8589 19.1836 24.5586C18.4839 25.2582 17.3494 25.2582 16.6498 24.5586L11.2748 19.1836C10.5751 18.4839 10.5751 17.3494 11.2748 16.6498L16.6498 11.2748C17.3494 10.5751 18.4839 10.5751 19.1836 11.2748Z" fill="#FFF41F"/>
</svg>
