<svg width="360" height="289" viewBox="0 0 360 289" fill="none" xmlns="http://www.w3.org/2000/svg">
<g clip-path="url(#clip0_19_547)">
<mask id="mask0_19_547" style="mask-type:luminance" maskUnits="userSpaceOnUse" x="0" y="-11" width="360" height="290">
<path d="M360 -10.6643H0V278.336H360V-10.6643Z" fill="white"/>
</mask>
<g mask="url(#mask0_19_547)">
<path d="M360 -10.6643H0V278.336H360V-10.6643Z" fill="#bdaa99"/>
<path d="M91.0081 84.7346C89.9641 84.7346 88.9921 84.9369 88.1641 85.3126C86.3641 82.9428 83.1241 81.3533 79.4161 81.3533C77.6161 81.3533 75.8881 81.729 74.4121 82.3937C71.5681 79.0702 66.8161 76.8738 61.3801 76.8738C52.6681 76.8738 45.6121 82.5382 45.6121 89.532H69.1921H77.1481H84.9961H89.6401H97.0201C97.0201 86.8732 94.3201 84.7346 91.0081 84.7346Z" fill="#ECF9FF"/>
<path d="M77.5441 164.47V180.943" stroke="#2D255E" stroke-width="6" stroke-miterlimit="10" stroke-linecap="round" stroke-linejoin="round"/>
<path d="M84.312 164.99H82.152C77.904 164.99 74.448 162.215 74.448 158.805V144.586C74.448 141.176 77.904 138.402 82.152 138.402H84.312C88.56 138.402 92.016 141.176 92.016 144.586V158.805C92.052 162.215 88.596 164.99 84.312 164.99Z" fill="#14A56A"/>
<path d="M84.312 164.99H82.152C77.904 164.99 74.448 162.215 74.448 158.805V144.586C74.448 141.176 77.904 138.402 82.152 138.402H84.312C88.56 138.402 92.016 141.176 92.016 144.586V158.805C92.052 162.215 88.596 164.99 84.312 164.99Z" stroke="#2D255E" stroke-width="6" stroke-miterlimit="10" stroke-linecap="round" stroke-linejoin="round"/>
<path d="M71.712 170.221L72.792 174.613L77.544 176.058" stroke="#2D255E" stroke-width="6" stroke-miterlimit="10" stroke-linecap="round" stroke-linejoin="round"/>
<path d="M69.444 170.943C65.952 170.943 63.108 168.66 63.108 165.857V158.314C63.108 155.511 65.952 153.228 69.444 153.228C72.936 153.228 75.78 155.511 75.78 158.314V165.857C75.78 168.66 72.936 170.943 69.444 170.943Z" fill="#12B075"/>
<path d="M69.444 170.943C65.952 170.943 63.108 168.66 63.108 165.857V158.314C63.108 155.511 65.952 153.228 69.444 153.228C72.936 153.228 75.78 155.511 75.78 158.314V165.857C75.78 168.66 72.936 170.943 69.444 170.943Z" stroke="#2D255E" stroke-width="6" stroke-miterlimit="10" stroke-linecap="round" stroke-linejoin="round"/>
<path d="M85.752 197.3H69.372L67.176 180.104H87.948L85.752 197.3Z" fill="#69351F"/>
<path d="M81.72 180.104L79.488 197.3H85.752L87.948 180.104H81.72Z" fill="#632D1B"/>
<path d="M87.192 183.688H79.416V186.087H87.192V183.688Z" fill="#562314"/>
<path d="M74.628 187.907H68.004V190.306H74.628V187.907Z" fill="#562314"/>
<path d="M86.2921 191.665H77.1841V194.063H86.2921V191.665Z" fill="#562314"/>
<path d="M85.752 197.3H69.372L67.176 180.104H87.948L85.752 197.3Z" stroke="#2D255E" stroke-width="6" stroke-miterlimit="10" stroke-linecap="round" stroke-linejoin="round"/>
<path d="M77.9401 174.527L83.0521 172.273V151.696" stroke="#2D255E" stroke-width="6" stroke-miterlimit="10" stroke-linecap="round" stroke-linejoin="round"/>
<path d="M83.3041 158.025L87.1921 155.511" stroke="#2D255E" stroke-width="6" stroke-miterlimit="10" stroke-linecap="round" stroke-linejoin="round"/>
<path opacity="0.38" d="M78.7321 149.21L80.4961 151.696" stroke="#006837" stroke-width="6" stroke-miterlimit="10" stroke-linecap="round" stroke-linejoin="round"/>
<path opacity="0.38" d="M80.208 143.748L81.972 146.205" stroke="#006837" stroke-width="6" stroke-miterlimit="10" stroke-linecap="round" stroke-linejoin="round"/>
<path d="M84.348 143.286L86.112 145.742" stroke="#39D188" stroke-width="6" stroke-miterlimit="10" stroke-linecap="round" stroke-linejoin="round"/>
<path opacity="0.38" d="M68.256 163.111L69.336 164.585" stroke="#006837" stroke-width="6" stroke-miterlimit="10" stroke-linecap="round" stroke-linejoin="round"/>
<path d="M68.868 159.036L69.984 160.539" stroke="#39D188" stroke-width="6" stroke-miterlimit="10" stroke-linecap="round" stroke-linejoin="round"/>
<path d="M282.924 101.699H262.044L255.888 73.9548H275.004L282.924 101.699Z" fill="white"/>
<path d="M262.044 101.699H241.164L236.772 73.9548H255.888L262.044 101.699Z" fill="#F5A623"/>
<path d="M241.164 101.699H220.284L217.656 73.9548H236.772L241.164 101.699Z" fill="white"/>
<path d="M220.284 101.699H199.404L198.54 73.9548H217.656L220.284 101.699Z" fill="#F5A623"/>
<path d="M199.404 101.699H178.524L179.424 73.9548H198.54L199.404 101.699Z" fill="white"/>
<path d="M178.524 101.699H157.644L160.308 73.9548H179.424L178.524 101.699Z" fill="#F5A623"/>
<path d="M157.644 101.699H136.764L141.156 73.9548H160.308L157.644 101.699Z" fill="white"/>
<path d="M136.764 101.699H115.884L122.04 73.9548H141.156L136.764 101.699Z" fill="#F5A623"/>
<path d="M115.884 101.699H95.004L102.924 73.9548H122.04L115.884 101.699Z" fill="white"/>
<path d="M163.764 112.219H102.924V180.423H163.764V112.219Z" fill="#F5969C"/>
<path opacity="0.18" d="M154.224 166.551H112.464V168.313H154.224V166.551Z" fill="#282828" stroke="#282828" stroke-width="6" stroke-miterlimit="10" stroke-linecap="round" stroke-linejoin="round"/>
<path d="M160.848 129.298H151.74V132.68H160.848V129.298Z" fill="#DF747C"/>
<path d="M109.008 123.403H102.924V126.784H109.008V123.403Z" fill="#DF747C"/>
<path d="M164.448 133.547H157.968V136.928H164.448V133.547Z" fill="#DF747C"/>
<path d="M163.152 169.469H158.58V172.851H163.152V169.469Z" fill="#DF747C"/>
<path d="M128.088 169.469H118.98V172.851H128.088V169.469Z" fill="#DF747C"/>
<path d="M123.048 173.718H113.94V177.099H123.048V173.718Z" fill="#DF747C"/>
<path d="M164.124 112.219H102.924V180.422H164.124V112.219Z" stroke="#2D255E" stroke-width="6" stroke-miterlimit="10" stroke-linecap="round" stroke-linejoin="round"/>
<path d="M152.064 114.531H114.624V164.239H152.064V114.531Z" fill="#66CDFD"/>
<path d="M138.744 161.406H124.956C124.416 161.406 123.984 161.06 123.984 160.626V160.279C123.984 159.846 124.416 159.499 124.956 159.499H138.744C139.284 159.499 139.716 159.846 139.716 160.279V160.626C139.752 161.06 139.284 161.406 138.744 161.406Z" fill="#3297D9"/>
<path d="M134.82 161.06H128.952V164.47H134.82V161.06Z" fill="#3297D9"/>
<path d="M145.224 164.557H142.344V153.632C142.344 152.997 142.992 152.476 143.784 152.476C144.576 152.476 145.224 152.997 145.224 153.632V164.557Z" fill="#3297D9"/>
<path d="M121.788 164.557H118.908V153.632C118.908 152.997 119.556 152.476 120.348 152.476C121.14 152.476 121.788 152.997 121.788 153.632V164.557Z" fill="#3297D9"/>
<path opacity="0.3" d="M150.696 164.238L152.064 162.678V141.725L132.444 164.238H150.696Z" fill="white"/>
<path opacity="0.3" d="M129.96 164.239L152.064 138.922V134.183L125.856 164.239H129.96Z" fill="white"/>
<path opacity="0.3" d="M122.616 164.239L152.064 130.483V128.114L120.564 164.239H122.616Z" fill="white"/>
<path d="M152.064 114.531H114.624V164.239H152.064V114.531Z" stroke="#2D255E" stroke-width="6" stroke-miterlimit="10" stroke-linecap="round" stroke-linejoin="round"/>
<path d="M154.224 164.239H112.464V167.707H154.224V164.239Z" fill="#D49D7F"/>
<path d="M154.224 164.239H112.464V167.707H154.224V164.239Z" stroke="#2D255E" stroke-width="6" stroke-miterlimit="10" stroke-linecap="round" stroke-linejoin="round"/>
<path d="M213.791 197.773V113.211H164.111V197.773H213.791Z" fill="#D49D7F"/>
<path d="M213.791 197.773V113.211H164.111V197.773H213.791Z" stroke="#2D255E" stroke-width="6" stroke-miterlimit="10" stroke-linecap="round" stroke-linejoin="round"/>
<path d="M208.404 117.941H169.524V176.521H208.404V117.941Z" fill="#66CDFD"/>
<path opacity="0.3" d="M208.764 176.81V148.95L188.748 176.81H208.764Z" fill="white"/>
<path opacity="0.3" d="M186.372 176.521L208.404 145.887V136.292L179.496 176.521H186.372Z" fill="white"/>
<path opacity="0.3" d="M176.292 176.521L208.404 131.842V128.72L174.06 176.521H176.292Z" fill="white"/>
<path d="M208.404 117.941H169.524V176.521H208.404V117.941Z" stroke="#2D255E" stroke-width="6" stroke-miterlimit="10" stroke-linecap="round" stroke-linejoin="round"/>
<path d="M166.932 180.423H96.084V197.763H166.932V180.423Z" fill="#DB6B7B"/>
<path d="M99.108 180.423H96.084V197.763H99.108V180.423Z" fill="#CE5569"/>
<path d="M166.284 180.423H164.52V197.763H166.284V180.423Z" fill="#CE5569"/>
<path d="M166.932 180.423H96.084V197.763H166.932V180.423Z" stroke="#2D255E" stroke-width="6" stroke-miterlimit="10" stroke-linecap="round" stroke-linejoin="round"/>
<path d="M213.971 180.447H274.811V112.243H213.971V180.447Z" fill="#F5969C"/>
<path d="M269.82 173.718H260.712V177.099H269.82V173.718Z" fill="#DF747C"/>
<path d="M223.056 173.718H213.948V177.099H223.056V173.718Z" fill="#DF747C"/>
<path d="M264.348 169.469H255.24V172.851H264.348V169.469Z" fill="#DF747C"/>
<path d="M225.864 121.929H220.284V125.31H225.864V121.929Z" fill="#DF747C"/>
<path d="M219.168 154.702H213.588V158.083H219.168V154.702Z" fill="#DF747C"/>
<path d="M213.611 180.447H274.811V112.243H213.611V180.447Z" stroke="#2D255E" stroke-width="6" stroke-miterlimit="10" stroke-linecap="round" stroke-linejoin="round"/>
<path d="M263.088 114.531H225.648V164.239H263.088V114.531Z" fill="#66CDFD"/>
<path d="M238.968 161.406H252.756C253.296 161.406 253.728 161.06 253.728 160.626V160.279C253.728 159.846 253.296 159.499 252.756 159.499H238.968C238.428 159.499 237.996 159.846 237.996 160.279V160.626C237.996 161.06 238.428 161.406 238.968 161.406Z" fill="#3297D9"/>
<path d="M242.939 164.476H248.807V161.066H242.939V164.476Z" fill="#3297D9"/>
<path d="M232.524 164.557H235.404V153.632C235.404 152.997 234.756 152.476 233.964 152.476C233.172 152.476 232.524 152.997 232.524 153.632V164.557Z" fill="#3297D9"/>
<path d="M255.924 164.557H258.804V153.632C258.804 152.997 258.156 152.476 257.364 152.476C256.572 152.476 255.924 152.997 255.924 153.632V164.557Z" fill="#3297D9"/>
<path opacity="0.3" d="M261.756 164.238L263.088 162.678V141.725L243.468 164.238H261.756Z" fill="white"/>
<path opacity="0.3" d="M241.02 164.239L263.088 138.922V134.183L236.88 164.239H241.02Z" fill="white"/>
<path opacity="0.3" d="M233.64 164.239L263.088 130.483V128.114L231.588 164.239H233.64Z" fill="white"/>
<path d="M263.088 114.531H225.648V164.239H263.088V114.531Z" stroke="#2D255E" stroke-width="6" stroke-miterlimit="10" stroke-linecap="round" stroke-linejoin="round"/>
<path opacity="0.18" d="M265.248 166.551H223.488V168.313H265.248V166.551Z" fill="#282828" stroke="#282828" stroke-width="6" stroke-miterlimit="10" stroke-linecap="round" stroke-linejoin="round"/>
<path d="M223.511 167.711H265.271V164.243H223.511V167.711Z" fill="#D49D7F"/>
<path d="M223.511 167.711H265.271V164.243H223.511V167.711Z" stroke="#2D255E" stroke-width="6" stroke-miterlimit="10" stroke-linecap="round" stroke-linejoin="round"/>
<path d="M211.355 197.787H281.627V180.447H211.355V197.787Z" fill="#DB6B7B"/>
<path d="M213.984 180.423H211.392V197.763H213.984V180.423Z" fill="#CE5569"/>
<path d="M211.355 197.787H281.627V180.447H211.355V197.787Z" stroke="#2D255E" stroke-width="6" stroke-miterlimit="10" stroke-linecap="round" stroke-linejoin="round"/>
<path d="M176.508 158.979C175.608 158.979 174.888 158.401 174.888 157.678V143.719C174.888 142.997 175.608 142.419 176.508 142.419C177.408 142.419 178.128 142.997 178.128 143.719V157.678C178.128 158.401 177.408 158.979 176.508 158.979Z" fill="#2D255E"/>
<path opacity="0.18" d="M262.044 103.433H241.164H220.284H199.404H178.524H157.644H136.764H115.884H102.924V121.091C103.716 121.264 104.58 121.351 105.444 121.351C111.204 121.351 115.884 117.594 115.884 112.97C115.884 117.594 120.564 121.351 126.324 121.351C132.084 121.351 136.764 117.594 136.764 112.97C136.764 117.594 141.444 121.351 147.204 121.351C152.964 121.351 157.644 117.594 157.644 112.97C157.644 117.594 162.324 121.351 168.084 121.351C173.844 121.351 178.524 117.594 178.524 112.97C178.524 117.594 183.204 121.351 188.964 121.351C194.724 121.351 199.404 117.594 199.404 112.97C199.404 117.594 204.084 121.351 209.844 121.351C215.604 121.351 220.284 117.594 220.284 112.97C220.284 117.594 224.964 121.351 230.724 121.351C236.484 121.351 241.164 117.594 241.164 112.97C241.164 117.594 245.844 121.351 251.604 121.351C257.364 121.351 262.044 117.594 262.044 112.97C262.044 117.594 266.724 121.351 272.484 121.351C273.276 121.351 274.068 121.264 274.788 121.149V103.433H262.044Z" fill="#282828" stroke="#282828" stroke-width="6" stroke-miterlimit="10" stroke-linecap="round" stroke-linejoin="round"/>
<path d="M251.604 119.617C245.844 119.617 241.164 115.86 241.164 111.236V101.699H262.044V111.236C262.044 115.86 257.364 119.617 251.604 119.617Z" fill="#D68821"/>
<path d="M230.724 119.617C224.964 119.617 220.284 115.86 220.284 111.236V101.699H241.164V111.236C241.164 115.86 236.484 119.617 230.724 119.617Z" fill="#D6D6D6"/>
<path d="M209.844 119.617C204.084 119.617 199.404 115.86 199.404 111.236V101.699H220.284V111.236C220.284 115.86 215.604 119.617 209.844 119.617Z" fill="#D68821"/>
<path d="M188.964 119.617C183.204 119.617 178.524 115.86 178.524 111.236V101.699H199.404V111.236C199.404 115.86 194.724 119.617 188.964 119.617Z" fill="#D6D6D6"/>
<path d="M168.084 119.617C162.324 119.617 157.644 115.86 157.644 111.236V101.699H178.524V111.236C178.524 115.86 173.844 119.617 168.084 119.617Z" fill="#D68821"/>
<path d="M147.204 119.617C141.444 119.617 136.764 115.86 136.764 111.236V101.699H157.644V111.236C157.644 115.86 152.964 119.617 147.204 119.617Z" fill="#D6D6D6"/>
<path d="M126.324 119.617C120.564 119.617 115.884 115.86 115.884 111.236V101.699H136.764V111.236C136.764 115.86 132.084 119.617 126.324 119.617Z" fill="#D68821"/>
<path d="M105.444 119.617C99.684 119.617 95.004 115.86 95.004 111.236V101.699H115.884V111.236C115.884 115.86 111.204 119.617 105.444 119.617Z" fill="#D6D6D6"/>
<path d="M251.604 119.617C245.844 119.617 241.164 115.86 241.164 111.236V101.699H262.044V111.236C262.044 115.86 257.364 119.617 251.604 119.617Z" stroke="#2D255E" stroke-width="6" stroke-miterlimit="10" stroke-linecap="round" stroke-linejoin="round"/>
<path d="M230.724 119.617C224.964 119.617 220.284 115.86 220.284 111.236V101.699H241.164V111.236C241.164 115.86 236.484 119.617 230.724 119.617Z" stroke="#2D255E" stroke-width="6" stroke-miterlimit="10" stroke-linecap="round" stroke-linejoin="round"/>
<path d="M209.844 119.617C204.084 119.617 199.404 115.86 199.404 111.236V101.699H220.284V111.236C220.284 115.86 215.604 119.617 209.844 119.617Z" stroke="#2D255E" stroke-width="6" stroke-miterlimit="10" stroke-linecap="round" stroke-linejoin="round"/>
<path d="M188.964 119.617C183.204 119.617 178.524 115.86 178.524 111.236V101.699H199.404V111.236C199.404 115.86 194.724 119.617 188.964 119.617Z" stroke="#2D255E" stroke-width="6" stroke-miterlimit="10" stroke-linecap="round" stroke-linejoin="round"/>
<path d="M168.084 119.617C162.324 119.617 157.644 115.86 157.644 111.236V101.699H178.524V111.236C178.524 115.86 173.844 119.617 168.084 119.617Z" stroke="#2D255E" stroke-width="6" stroke-miterlimit="10" stroke-linecap="round" stroke-linejoin="round"/>
<path d="M147.204 119.617C141.444 119.617 136.764 115.86 136.764 111.236V101.699H157.644V111.236C157.644 115.86 152.964 119.617 147.204 119.617Z" stroke="#2D255E" stroke-width="6" stroke-miterlimit="10" stroke-linecap="round" stroke-linejoin="round"/>
<path d="M126.324 119.617C120.564 119.617 115.884 115.86 115.884 111.236V101.699H136.764V111.236C136.764 115.86 132.084 119.617 126.324 119.617Z" stroke="#2D255E" stroke-width="6" stroke-miterlimit="10" stroke-linecap="round" stroke-linejoin="round"/>
<path d="M105.444 119.617C99.684 119.617 95.004 115.86 95.004 111.236V101.699H115.884V111.236C115.884 115.86 111.204 119.617 105.444 119.617Z" stroke="#2D255E" stroke-width="6" stroke-miterlimit="10" stroke-linecap="round" stroke-linejoin="round"/>
<path d="M282.924 101.699H262.044L255.888 73.9548H275.004L282.924 101.699Z" stroke="#2D255E" stroke-width="6" stroke-miterlimit="10" stroke-linecap="round" stroke-linejoin="round"/>
<path d="M262.044 101.699H241.164L236.772 73.9548H255.888L262.044 101.699Z" stroke="#2D255E" stroke-width="6" stroke-miterlimit="10" stroke-linecap="round" stroke-linejoin="round"/>
<path d="M241.164 101.699H220.284L217.656 73.9548H236.772L241.164 101.699Z" stroke="#2D255E" stroke-width="6" stroke-miterlimit="10" stroke-linecap="round" stroke-linejoin="round"/>
<path d="M220.284 101.699H199.404L198.54 73.9548H217.656L220.284 101.699Z" stroke="#2D255E" stroke-width="6" stroke-miterlimit="10" stroke-linecap="round" stroke-linejoin="round"/>
<path d="M199.404 101.699H178.524L179.424 73.9548H198.54L199.404 101.699Z" stroke="#2D255E" stroke-width="6" stroke-miterlimit="10" stroke-linecap="round" stroke-linejoin="round"/>
<path d="M178.524 101.699H157.644L160.308 73.9548H179.424L178.524 101.699Z" stroke="#2D255E" stroke-width="6" stroke-miterlimit="10" stroke-linecap="round" stroke-linejoin="round"/>
<path d="M157.644 101.699H136.764L141.156 73.9548H160.308L157.644 101.699Z" stroke="#2D255E" stroke-width="6" stroke-miterlimit="10" stroke-linecap="round" stroke-linejoin="round"/>
<path d="M136.764 101.699H115.884L122.04 73.9548H141.156L136.764 101.699Z" stroke="#2D255E" stroke-width="6" stroke-miterlimit="10" stroke-linecap="round" stroke-linejoin="round"/>
<path d="M115.884 101.699H95.004L102.924 73.9548H122.04L115.884 101.699Z" stroke="#2D255E" stroke-width="6" stroke-miterlimit="10" stroke-linecap="round" stroke-linejoin="round"/>
<path d="M275.004 68.7529H102.924V73.9549H275.004V68.7529Z" fill="#DB6B7B"/>
<path d="M275.004 68.7529H102.924V70.5447H275.004V68.7529Z" fill="#F5969C"/>
<path d="M275.004 68.7529H102.924V73.9549H275.004V68.7529Z" stroke="#2D255E" stroke-width="6" stroke-miterlimit="10" stroke-linecap="round" stroke-linejoin="round"/>
<path d="M199.855 136.623L180.841 139.868L182.735 147.019L201.749 143.775L199.855 136.623Z" fill="#E8E8E8"/>
<path d="M199.855 136.623L180.841 139.868L182.735 147.019L201.749 143.775L199.855 136.623Z" stroke="#2D255E" stroke-width="3" stroke-miterlimit="10" stroke-linecap="round" stroke-linejoin="round"/>
<path d="M185.112 141.494L196.812 139.5C197.28 139.413 197.712 139.645 197.82 140.02L198.18 141.321C198.288 141.697 198 142.043 197.532 142.13L185.832 144.124C185.364 144.211 184.932 143.98 184.824 143.604L184.464 142.303C184.356 141.928 184.644 141.581 185.112 141.494Z" fill="#D3D3D3"/>
<path d="M186.768 138.546L189.756 131.524L193.392 137.217" stroke="#2D255E" stroke-width="2" stroke-miterlimit="10" stroke-linecap="round" stroke-linejoin="round"/>
<path d="M189.756 132.766C190.352 132.766 190.836 132.378 190.836 131.899C190.836 131.421 190.352 131.032 189.756 131.032C189.16 131.032 188.676 131.421 188.676 131.899C188.676 132.378 189.16 132.766 189.756 132.766Z" fill="#2D255E"/>
<path d="M133.236 173.718H124.128V177.099H133.236V173.718Z" fill="#DF747C"/>
<path d="M272.484 119.617C266.724 119.617 262.044 115.86 262.044 111.236V101.699H282.924V111.236C282.924 115.86 278.244 119.617 272.484 119.617Z" fill="#D6D6D6"/>
<path d="M272.484 119.617C266.724 119.617 262.044 115.86 262.044 111.236V101.699H282.924V111.236C282.924 115.86 278.244 119.617 272.484 119.617Z" stroke="#2D255E" stroke-width="6" stroke-miterlimit="10" stroke-linecap="round" stroke-linejoin="round"/>
<path d="M286.128 152.996H272.448V197.791H286.128V152.996Z" fill="#D6D6D6"/>
<path d="M282.42 152.996H275.472V197.791H282.42V152.996Z" fill="white"/>
<path d="M286.128 152.996H272.448V197.791H286.128V152.996Z" stroke="#2D255E" stroke-width="6" stroke-miterlimit="10" stroke-linecap="round" stroke-linejoin="round"/>
<path d="M280.044 159.037H278.208C277.236 159.037 276.48 158.43 276.48 157.649V153.632H281.772V157.649C281.772 158.401 280.98 159.037 280.044 159.037Z" fill="#2D255E"/>
<path d="M51.408 197.762H302.76" stroke="#2D255E" stroke-width="8" stroke-miterlimit="10" stroke-linecap="round" stroke-linejoin="round"/>
<path d="M306.108 56.4703C304.416 56.4703 302.868 56.9616 301.68 57.7419C299.592 53.7248 294.66 50.8926 288.864 50.8926C281.196 50.8926 275.004 55.8923 275.004 62.0191H299.196H302.76H313.056C313.056 58.9557 309.96 56.4703 306.108 56.4703Z" fill="#ECF9FF"/>
<path d="M206.208 50.8927C206.136 46.6444 201.816 43.2342 196.524 43.2342C194.796 43.2342 193.176 43.6099 191.772 44.2168C190.26 42.1649 187.56 40.7199 184.464 40.4598C183.42 37.0496 179.604 34.5353 175.032 34.5353C173.772 34.5353 172.62 34.7376 171.504 35.0555C168.12 30.6916 162.072 27.7727 155.16 27.7727C146.052 27.7727 138.42 32.8591 136.404 39.6506C134.964 39.1304 133.38 38.8703 131.724 38.8703C125.28 38.8703 120.096 43.0608 120.096 48.205C120.096 49.1298 120.276 50.0546 120.6 50.8927H206.208Z" fill="#ECF9FF"/>
</g>
</g>
<defs>
<clipPath id="clip0_19_547">
<rect width="360" height="289" fill="white"/>
</clipPath>
</defs>
</svg>
